<?xml version="1.0" encoding="UTF-8"?><svg id="Capa_1" xmlns="http://www.w3.org/2000/svg" viewBox="0 0 98.53 30.32"><defs><style>.cls-1{fill:#06232c;fill-rule:evenodd;}</style></defs><path class="cls-1" d="M6.16,13.53v.88h3.72c.75,0,1.35,.61,1.35,1.36v2.52c0,.75-.61,1.36-1.35,1.36h-3.72v8.35c0,.75-.61,1.36-1.35,1.36H1.35c-.75,0-1.35-.61-1.35-1.36V13.45H0C.04,6.55,4.66,.85,10.6,.01c.81-.11,1.52,.53,1.52,1.35v3.72c0,.65-.45,1.19-1.08,1.33-2.78,.62-4.89,3.57-4.89,7.12Zm80.25,4.23h0v10.24c0,.76,.63,1.37,1.41,1.37h3.56c.79,0,1.42-.63,1.41-1.4l-.22-10.21h0c.05-3.25,2.11-5.95,4.83-6.54,.66-.14,1.14-.69,1.14-1.34v-3.3c0-.83-.76-1.48-1.6-1.36-5.9,.82-10.47,6.13-10.52,12.55Zm-8.83-2.36c-.19-2.06-2.08-4.07-4.65-4.07s-4.75,1.96-5.04,4.07h9.69Zm5.12,9.8c.56,.55,.54,1.46-.05,1.99-2.28,2.02-5.49,3.13-8.62,3.13-7.02,0-12.3-4.79-12.3-12.06,0-6.46,4.46-12.11,11.43-12.11,6.49,0,11.09,5.41,11.09,11.87,0,.16,0,.31,0,.47-.03,.73-.64,1.3-1.38,1.3h-15.03c.34,3.26,3,5.51,6.34,5.51,2.07,0,3.82-.9,5.02-1.86,.54-.44,1.33-.38,1.83,.11l1.68,1.66ZM55.19,6.95l-6.04,13.42-6.03-13.42c-.22-.49-.71-.81-1.25-.81h-3.46c-1,0-1.67,1.04-1.25,1.95l9.47,20.57c.22,.49,.71,.8,1.25,.8h2.57c.54,0,1.02-.31,1.25-.8l9.47-20.57c.42-.91-.25-1.95-1.25-1.95h-3.46c-.54,0-1.03,.32-1.25,.81ZM30.57,15.4c-.19-2.06-2.08-4.07-4.65-4.07s-4.75,1.96-5.04,4.07h9.69Zm4.78,9.47c.77,.76,.7,2.01-.15,2.68-2.25,1.79-5.25,2.77-8.19,2.77-7.02,0-12.3-4.79-12.3-12.06,0-6.46,4.46-12.11,11.43-12.11,6.49,0,11.09,5.41,11.09,11.87,0,.16,0,.31,0,.47-.03,.73-.64,1.3-1.38,1.3h-15.03c.34,3.26,3,5.51,6.34,5.51,1.9,0,3.53-.76,4.72-1.63,.74-.54,1.76-.5,2.41,.15l1.07,1.06Z"/></svg>